# xmcd
#
# Track frame offsets: 
#        150
#        10284
#        22950
#        34872
#        49198
#        59852
#        71949
#        83575
#        95820
#        107040
#        116028
#        126697
#        136879
#        154218
#        168745
#        186749
#        199498
#        212612
#        222794
#        235169
#        248199
#        260750
#        274709
#        287610
#        299635
#        310951
#        332545
#        347507
#
# Disc length: 4783 seconds
#
# Revision: 0
# Processed by: cddbd v1.5.2PL0 Copyright (c) Steve Scherf et al.
# Submitted via: ExactAudioCopy v0.99pb5
#
DISCID=ca12ad1c
DTITLE=Connie Francis - Platinum Collection
DYEAR=1900
DGENRE=Country
TTITLE0=Stupid Cupid
TTITLE1=Frankie
TTITLE2=Where The Boys Are
TTITLE3=It's So Easy
TTITLE4=Lipstick On Your Collar
TTITLE5=Vacation
TTITLE6=Everybody's Somebody's Fool
TTITLE7=Heard Beat
TTITLE8=My Heart Has A Mind Of Its Own
TTITLE9=Many Tears Ago
TTITLE10=Among My Souvenire
TTITLE11=Who's Sorry
TTITLE12=Hurt
TTITLE13=Are You Lonesome Tonight
TTITLE14=April Love
TTITLE15=Together
TTITLE16=Tennesse Waltz
TTITLE17=La Vie En Rose
TTITLE18=Moon River
TTITLE19=Quelereme Mucho
TTITLE20=Besame Mucho
TTITLE21=Don't Beark The Heart That Loves You
TTITLE22=I Can't Stop Loving You
TTITLE23=Break'n In A Brand New Broken Heart
TTITLE24=My Happiness
TTITLE25=Thorn Between Two Lovers
TTITLE26=The Look Of Love
TTITLE27=I'm Sorry I made You Cry
EXTD=
EXTT0=
EXTT1=
EXTT2=
EXTT3=
EXTT4=
EXTT5=
EXTT6=
EXTT7=
EXTT8=
EXTT9=
EXTT10=
EXTT11=
EXTT12=
EXTT13=
EXTT14=
EXTT15=
EXTT16=
EXTT17=
EXTT18=
EXTT19=
EXTT20=
EXTT21=
EXTT22=
EXTT23=
EXTT24=
EXTT25=
EXTT26=
EXTT27=
PLAYORDER=
